<svg width="110" height="110" viewBox="0 0 110 110" fill="none" xmlns="http://www.w3.org/2000/svg">
<g id="Group 142">
<g id="Group 48">
<path id="path964" d="M106.995 63.4014V44.0608L104.044 45.0631V63.4014H106.995Z" fill="#DFD8C8"/>
<g id="Group 47">
<path id="path966" d="M89.2497 55.5673L56.2111 66.7828C55.9045 66.8878 55.5848 66.9403 55.2678 66.9403C54.9481 66.9403 54.6258 66.8878 54.3219 66.7828L21.283 55.5673V83.311H21.3171L21.2437 83.6889C21.2437 86.9919 36.4779 94.3612 55.2468 94.3612C74.0157 94.3612 89.2105 86.9919 89.2105 83.6889L89.132 83.311H89.2497V55.5673Z" fill="#6D6450"/>
<path id="path968" d="M21.2903 50.0875L55.2751 61.6231L89.257 50.0875L104.043 45.0662L106.994 44.0639L108.545 43.5366L55.2751 25.5734L2 43.5366L21.2903 50.0875Z" fill="#6D6450"/>
</g>
<path id="path970" d="M102.032 67.9336V79.2225C102.032 81.1508 103.591 82.7092 105.517 82.7092C107.44 82.7092 108.999 81.1508 108.999 79.2225V67.9336C108.999 66.9787 108.617 66.1155 107.996 65.4859H103.038C102.417 66.1155 102.032 66.9787 102.032 67.9336Z" fill="#DFD8C8"/>
<path id="path972" d="M102.593 63.4033V65.4838H108.439V63.4033H106.992H104.042H102.593Z" fill="#B8AC92"/>
</g>
</g>
</svg>
