<svg width="110" height="110" viewBox="0 0 110 110" fill="none" xmlns="http://www.w3.org/2000/svg">
<g id="Group 139">
<g id="Group 47">
<path id="path4592" d="M42.286 10.3358C39.564 15.1738 39.4141 21.2884 42.4389 26.4105C43.0317 27.4253 43.7489 28.3189 44.5106 29.1486C45.3107 29.5539 46.0853 29.9879 46.8184 30.4826C49.3842 31.5421 52.0074 33.0452 54.9972 33.1505C55.7271 33.125 56.4346 33.0165 57.1231 32.8505C58.551 29.5763 58.8951 25.868 57.9644 22.3256C57.5979 20.9278 57.0372 19.5523 56.2659 18.2407C53.2443 13.1154 47.8256 10.2911 42.286 10.3358Z" fill="#6D6450"/>
<path id="path4594" d="M9.15322 50.5554C9.04485 51.5415 8.98438 52.5341 9.0035 53.5298C9.00988 53.9255 9.03855 54.318 9.07043 54.7169C9.08955 54.9882 9.10244 55.2594 9.13112 55.5371C9.18531 56.0222 9.25852 56.5041 9.34776 56.9859C9.3892 57.2349 9.43714 57.4838 9.48814 57.7295C9.60607 58.2752 9.72712 58.8209 9.88967 59.3667L9.8959 59.4018C10.5366 61.6995 11.4768 64.0834 12.6848 66.5982C13.539 68.3885 14.5209 70.2395 15.5983 72.1638C19.694 79.4975 24.5132 88.4428 30.8338 97.5221C35.6849 103.011 40.5582 106.968 46.34 106.553C49.1353 106.362 52.0264 105.277 54.9938 103.043C57.9644 105.277 60.8555 106.362 63.6476 106.553C69.4454 106.968 74.8 103.458 79.6447 97.9369C86.4976 88.8417 90.2904 79.4975 94.4021 72.1638C95.4539 70.2395 96.4422 68.3885 97.3028 66.5982C98.514 64.0834 99.4701 61.6995 100.108 59.4018V59.3667C100.267 58.8209 100.395 58.2752 100.49 57.7295C100.554 57.4838 100.586 57.2349 100.65 56.9859C100.713 56.5041 100.809 56.0222 100.841 55.5371C100.873 55.2594 100.904 54.985 100.936 54.7137C100.936 54.318 100.968 53.9255 101 53.5298C101 52.5341 100.936 51.5415 100.841 50.5554C100.076 43.5345 96.1553 36.8807 90.45 31.8575C90.195 31.9947 90.195 31.9947 90.45 31.8543C86.7845 28.7587 81.908 26.8184 76.4894 26.6812C76.2982 26.678 76.1068 26.6589 75.8837 26.6589C72.7283 26.6589 69.7322 27.2939 67.0516 28.4045C65.6747 28.9725 64.3742 29.6714 63.1757 30.482C61.9964 30.9671 60.8074 31.5416 59.5803 32.0362C61.1453 25.2866 64.3168 19.1146 68.7408 14.0053C69.1743 13.501 69.6365 13.0096 70.0827 12.5277C69.085 11.3182 68.078 10.1215 67.0357 8.95024C63.2715 12.8277 60.2082 17.3594 57.9611 22.3251C58.8918 25.8674 58.5477 29.5757 57.1198 32.85C56.4313 33.016 55.7237 33.1244 54.9938 33.15C52.0041 33.0447 49.3808 31.5416 46.815 30.482C46.0819 29.9874 45.3073 29.5534 44.5073 29.1481C43.9941 28.8864 43.4812 28.6279 42.9426 28.4045C40.2461 27.2939 37.2562 26.6589 34.0911 26.6589C33.8871 26.6589 33.6897 26.678 33.4857 26.6812C28.0864 26.8184 23.1968 28.7587 19.5473 31.8543C19.8118 31.9947 19.8118 31.9947 19.5473 31.8575C13.8292 36.8807 9.92775 43.5345 9.15322 50.5554Z" fill="#DFD8C8"/>
</g>
</g>
</svg>
