<svg width="110" height="110" viewBox="0 0 110 110" fill="none" xmlns="http://www.w3.org/2000/svg">
<g id="Group 145">
<g id="Group 47">
<path id="path1072" d="M57.8165 87.2174V37.6561C59.0267 37.0486 60.0047 36.0693 60.6114 34.8577H86.0046L86.777 33.334C86.9428 33.0021 87.2876 32.7896 87.6623 32.7896C88.0303 32.7896 88.3751 33.0021 88.5442 33.334L89.3167 34.8577H90.6992C92.2475 34.8577 93.5041 33.6028 93.5041 32.0459C93.5041 30.4956 92.2475 29.2375 90.6992 29.2375H60.6081C60.0047 28.0259 59.0267 27.0466 57.8165 26.4358V23.7769C57.8165 22.2267 56.56 20.9652 55.0117 20.9652C53.46 20.9652 52.2034 22.2267 52.2034 23.7769V26.4358C50.99 27.0466 50.0119 28.0259 49.4052 29.2375H19.3207C17.7691 29.2375 16.5125 30.4956 16.5125 32.0459C16.5125 33.6028 17.7691 34.8577 19.3207 34.8577H20.7L21.4725 33.334C21.6415 33.0021 21.9831 32.7896 22.3577 32.7896C22.729 32.7896 23.0705 33.0021 23.2429 33.334L24.0121 34.8577H49.4052C50.0119 36.0693 50.99 37.052 52.2034 37.6561V87.2174H57.8165Z" fill="#6D6450"/>
<path id="path1074" d="M88.5373 33.3337C88.3682 33.0018 88.0234 32.7893 87.6554 32.7893C87.2808 32.7893 86.936 33.0018 86.7702 33.3337L85.9977 34.8574L71.6517 63.1534C71.5754 63.2995 71.5555 63.4523 71.5555 63.605H73.6476L87.6521 35.9761L101.66 63.605H103.752C103.752 63.4523 103.729 63.2995 103.656 63.1534L89.3098 34.8574L88.5373 33.3337Z" fill="#B8AC92"/>
<path id="path1076" d="M73.6441 63.6046H70.3021C70.3021 73.1949 78.0703 80.9726 87.6519 80.9726C97.2336 80.9726 104.998 73.1949 104.998 63.6046H103.749H101.656H73.6441Z" fill="#DFD8C8"/>
<path id="path1078" d="M23.2309 33.3337C23.0585 33.0018 22.717 32.7893 22.3457 32.7893C21.971 32.7893 21.6295 33.0018 21.4605 33.3337L20.688 34.8574L6.34197 63.1534C6.26903 63.2995 6.24912 63.4523 6.24912 63.605H8.33788L22.3457 35.9761L36.3502 63.605H38.4455C38.4455 63.4523 38.4223 63.2995 38.3494 63.1534L24.0001 34.8574L23.2309 33.3337Z" fill="#B8AC92"/>
<path id="path1080" d="M8.34201 63.6046H5C5 73.1949 12.7681 80.9726 22.3498 80.9726C31.9315 80.9726 39.6996 73.1949 39.6996 63.6046H38.4497H36.3543H8.34201Z" fill="#DFD8C8"/>
<path id="path1082" d="M57.8101 87.216H37.3107V91.2261H28.2826V95.2394H81.5687V91.2261H72.5374V87.216H57.8101Z" fill="#6D6450"/>
</g>
</g>
</svg>
