<svg width="110" height="110" viewBox="0 0 110 110" fill="none" xmlns="http://www.w3.org/2000/svg">
<g id="Group 143">
<g id="Group 47">
<path id="path4752" d="M55 31.3513C51.0465 22.6395 42.2831 16.5622 32.1254 16.5622C18.27 16.5622 7 27.8462 7 41.7155C7 44.6392 7.5053 47.4446 8.42724 50.0595C9.02108 51.7414 9.80194 53.328 10.7206 54.8227H39.4156L48.6481 34.16L58.8813 68.8957L65.9058 54.8457H99.2695C100.162 53.4003 100.926 51.8629 101.514 50.2434C102.475 47.576 103 44.7049 103 41.7155C103 27.8462 91.7333 16.5622 77.8812 16.5622C67.7202 16.5622 58.9535 22.6395 55 31.3513Z" fill="#6D6450"/>
<path id="path4754" d="M68.1872 58.5445L57.9966 78.9247L47.934 44.8001L41.8053 58.5215H13.4777C14.2356 59.3625 15.0329 60.164 15.8958 60.8966L54.2071 99.0027C54.4433 99.2392 54.7551 99.351 55.0635 99.351C55.3752 99.351 55.6836 99.2392 55.9198 99.0027L95.6584 59.4742L95.6551 59.4676C95.9438 59.1753 96.203 58.85 96.4819 58.5445H68.1872Z" fill="#6D6450"/>
<path id="path4756" d="M58.8794 68.8979L48.6462 34.1622L39.4137 54.8249H10.7188C11.4274 55.9813 12.2083 57.0817 13.0876 58.1034L13.4747 58.5206H41.8023L47.931 44.7991L57.9936 78.9238L68.1842 58.5436H96.4789H96.6594C97.6732 57.4004 98.5754 56.1619 99.376 54.8479H99.2677H65.9039L58.8794 68.8979Z" fill="#DFD8C8"/>
</g>
</g>
</svg>
