<svg xmlns="http://www.w3.org/2000/svg" xmlns:xlink="http://www.w3.org/1999/xlink" viewBox="0 0 64 64"><defs><style>.cls-1{fill:url(#linear-gradient);}.cls-2{fill:url(#linear-gradient-2);}.cls-3{fill:url(#linear-gradient-3);}.cls-4{fill:url(#linear-gradient-4);}.cls-5{fill:#4795ea;}.cls-6{fill:url(#linear-gradient-5);}.cls-7{fill:url(#linear-gradient-6);}.cls-8{fill:url(#linear-gradient-7);}.cls-9{fill:url(#linear-gradient-8);}</style><linearGradient id="linear-gradient" x1="7" y1="24" x2="57" y2="24" gradientUnits="userSpaceOnUse"><stop offset="0" stop-color="#fe9661"/><stop offset="1" stop-color="#ffb369"/></linearGradient><linearGradient id="linear-gradient-2" x1="32" y1="38" x2="32" y2="10" gradientUnits="userSpaceOnUse"><stop offset="0" stop-color="#d3e6f5"/><stop offset="1" stop-color="#f0f7fc"/></linearGradient><linearGradient id="linear-gradient-3" x1="48" y1="42" x2="48" y2="28" gradientUnits="userSpaceOnUse"><stop offset="0" stop-color="#54a5ff"/><stop offset="1" stop-color="#8ad3fe"/></linearGradient><linearGradient id="linear-gradient-4" x1="39" y1="49" x2="57" y2="49" xlink:href="#linear-gradient-3"/><linearGradient id="linear-gradient-5" x1="32" x2="32" xlink:href="#linear-gradient-3"/><linearGradient id="linear-gradient-6" x1="23" y1="49" x2="41" y2="49" xlink:href="#linear-gradient-3"/><linearGradient id="linear-gradient-7" x1="16" x2="16" xlink:href="#linear-gradient-3"/><linearGradient id="linear-gradient-8" x1="7" y1="49" x2="25" y2="49" xlink:href="#linear-gradient-3"/></defs><title>Class</title><g id="Class"><rect class="cls-1" x="7" y="7" width="50" height="34" rx="2" ry="2"/><rect class="cls-2" x="10" y="10" width="44" height="28" rx="1" ry="1"/><rect class="cls-3" x="42.17" y="28" width="11.67" height="14" rx="5.83" ry="5.83"/><path class="cls-4" d="M57,47V57H39V47a6,6,0,0,1,6-6h6A6,6,0,0,1,57,47Z"/><path class="cls-5" d="M44,47V57H42V47a1,1,0,0,1,2,0Z"/><path class="cls-5" d="M54,47V57H52V47a1,1,0,0,1,2,0Z"/><rect class="cls-6" x="26.17" y="28" width="11.67" height="14" rx="5.83" ry="5.83"/><path class="cls-7" d="M41,47V57H23V47a6,6,0,0,1,6-6h6A6,6,0,0,1,41,47Z"/><path class="cls-5" d="M28,47V57H26V47a1,1,0,0,1,2,0Z"/><path class="cls-5" d="M38,47V57H36V47a1,1,0,0,1,2,0Z"/><rect class="cls-8" x="10.17" y="28" width="11.67" height="14" rx="5.83" ry="5.83"/><path class="cls-9" d="M25,47V57H7V47a6,6,0,0,1,6-6h6A6,6,0,0,1,25,47Z"/><path class="cls-5" d="M12,47V57H10V47a1,1,0,0,1,2,0Z"/><path class="cls-5" d="M22,47V57H20V47a1,1,0,0,1,2,0Z"/></g></svg>