<svg xmlns="http://www.w3.org/2000/svg" xmlns:xlink="http://www.w3.org/1999/xlink" viewBox="0 0 64 64"><defs><style>.cls-1{fill:#9db8d3;}.cls-2{fill:url(#linear-gradient);}.cls-3{fill:url(#linear-gradient-2);}.cls-4{fill:url(#linear-gradient-3);}.cls-5{fill:#b4cde1;}.cls-6{fill:#eb7f58;}</style><linearGradient id="linear-gradient" x1="29" y1="53" x2="29" y2="7" gradientUnits="userSpaceOnUse"><stop offset="0" stop-color="#d3e6f5"/><stop offset="1" stop-color="#f0f7fc"/></linearGradient><linearGradient id="linear-gradient-2" x1="22" y1="53.23" x2="30" y2="53.23" gradientUnits="userSpaceOnUse"><stop offset="0" stop-color="#fe9661"/><stop offset="1" stop-color="#ffb369"/></linearGradient><linearGradient id="linear-gradient-3" x1="14" y1="17.5" x2="38" y2="17.5" gradientUnits="userSpaceOnUse"><stop offset="0" stop-color="#54a5ff"/><stop offset="1" stop-color="#8ad3fe"/></linearGradient></defs><title>Diploma</title><g id="Diploma"><path class="cls-1" d="M57,13v1a1,1,0,0,1-1,1H45V13.25A6.21,6.21,0,0,1,51.16,7,6,6,0,0,1,57,13Z"/><path class="cls-1" d="M57,46v.75A6.21,6.21,0,0,1,50.84,53,6,6,0,0,1,45,47V45H56A1,1,0,0,1,57,46Z"/><path class="cls-2" d="M30,53H51a6,6,0,0,1-6-6V13a6,6,0,0,1,6-6H13a6,6,0,0,0-6,6V47a6,6,0,0,0,6,6h9"/><polygon class="cls-3" points="22 49.46 22 53 22 57 26 55 30 57 30 53 30 49.46 22 49.46"/><rect class="cls-4" x="14" y="14" width="24" height="7" rx="1" ry="1"/><path class="cls-5" d="M36,28H16a1,1,0,0,1,0-2H36a1,1,0,0,1,0,2Z"/><path class="cls-5" d="M36,34H16a1,1,0,0,1,0-2H36a1,1,0,0,1,0,2Z"/><circle class="cls-6" cx="26" cy="45" r="6"/></g></svg>