<svg width="110" height="110" viewBox="0 0 110 110" fill="none" xmlns="http://www.w3.org/2000/svg">
<g id="Group 129">
<g id="Group 118">
<g id="Group 114">
<path id="path124" d="M13.4414 57.4596L13.5732 57.393L13.4332 57.4528C12.8068 57.7189 12.2051 58.0114 11.6447 58.3573L13.4414 57.4661V57.4596Z" fill="#82BFAB"/>
<path id="path126" d="M45.3941 69.7465C44.1308 68.642 42.9443 67.4203 41.8463 66.0714L29.0012 74.6245L33.5377 77.6429L34.7803 76.8177C35.0548 76.5796 35.3559 76.3701 35.6864 76.2114L45.3941 69.7465Z" fill="#B8AC92"/>
<path id="path128" d="M37.6775 58.6924C36.9444 57.0034 36.3509 55.2847 35.9033 53.5362L17.1837 65.6337L16.6188 65.9914L16.4633 66.0975L16.6315 66.0014C17.7011 67.4188 18.9167 68.7335 20.2783 69.929L21.0178 69.4522L22.3858 68.5712L37.6775 58.6924Z" fill="#B8AC92"/>
<path id="path130" d="M34.4091 43.7419L48.3404 34.9947L48.3465 35.0071L54.3466 31.2443L54.5716 31.1024L54.9305 30.7169C54.5716 30.2728 54.3952 29.7114 54.4834 29.1439L54.5047 29.0544C54.5503 28.8231 54.6263 28.6041 54.748 28.3944L54.9305 28.1969C55.5478 27.4382 56.6122 27.2099 57.4668 27.7219L57.5306 27.7621L74.6703 38.6157L78.1098 40.7963C79.083 41.4872 80.3207 41.7741 81.5675 41.481C83.9031 40.932 85.3568 38.5694 84.8155 36.2037C84.5418 34.9916 83.7936 34.0231 82.8235 33.434L82.7019 33.3539L61.2286 19.7553L61.2164 19.7677L61.1648 19.7306C59.1637 18.4722 57.0653 17.513 54.9305 16.7759C49.6511 14.9561 44.0829 14.6662 38.8157 15.8197C37.581 16.0849 36.3706 16.4273 35.1815 16.8498C34.111 17.2292 33.0649 17.6703 32.0401 18.17C29.89 18.6141 27.5788 18.2686 25.5655 17.004L20.7758 14L2 44.7596L6.3488 47.4892L9.05535 49.1886C10.4512 50.4655 11.3849 52.128 11.7802 53.9107L11.8593 54.3363C11.9779 54.9809 12.1421 55.6162 12.3124 56.2516C12.4158 56.6371 12.5375 57.0135 12.6591 57.3929L12.7108 57.3651L34.4091 43.7419Z" fill="#B8AC92"/>
<path id="path132" d="M89.161 14.0007L84.3366 16.9882C82.3057 18.2458 79.9809 18.5894 77.8152 18.1477C76.786 17.6508 75.7292 17.2121 74.651 16.8348C73.4533 16.4146 72.2311 16.0742 70.9936 15.8104C65.6852 14.6632 60.0766 14.9516 54.759 16.7613C56.9094 17.4944 59.0229 18.4483 61.0385 19.6998L61.0905 19.7366L61.1028 19.7244L82.7315 33.2482L82.8541 33.3279C83.8312 33.9137 84.5847 34.8769 84.8604 36.0823C85.4057 38.435 83.9415 40.7846 81.589 41.3306C80.3331 41.622 79.0864 41.3367 78.1062 40.6496L74.6418 38.4811L57.378 27.6871L57.3137 27.6472C56.4529 27.138 55.3809 27.365 54.759 28.1195L54.9428 28.3159C55.4054 29.0674 55.292 29.9815 54.759 30.6257L54.3976 31.0091L54.1709 31.1502L48.1274 34.8922L48.1212 34.8799L34.089 43.579L12.2336 57.1274L12.1846 57.1611L11.5168 57.572C10.4294 58.4002 9.7157 59.6916 9.7157 61.17C9.7157 63.673 11.7404 65.7005 14.243 65.7005C14.972 65.7005 15.6551 65.5104 16.2647 65.2037L16.4148 65.1054L16.96 64.7741L35.0263 53.5692C35.4582 55.1888 36.031 56.7807 36.7386 58.345L21.9805 67.4949L20.6603 68.3108C19.7199 69.139 19.1073 70.3444 19.1073 71.7002C19.1073 74.2062 21.1351 76.2338 23.6346 76.2338C24.8261 76.2338 25.9043 75.7644 26.7161 75.0037L26.7804 75.0927L28.2691 74.1663L41.5998 65.9C42.7393 67.2036 43.9707 68.3844 45.2817 69.4518L35.2071 75.7C34.864 75.8534 34.5516 76.0558 34.2667 76.2859C33.2191 77.1079 32.5391 78.3685 32.5391 79.7979C32.5391 82.2855 34.5516 84.2947 37.0358 84.2947C38.3376 84.2947 39.5016 83.7334 40.3225 82.847L40.4573 83.0217L41.5263 82.3562L50.0541 77.065L52.6148 75.4792V75.3166V73.2001L52.5934 72.7676L52.6148 72.3352C52.8323 70.047 54.756 68.2587 57.0993 68.2587C59.5651 68.2618 61.5684 70.2555 61.5959 72.7216V72.7707V72.8136L61.5898 78.387V86.3221L66.5398 83.2518V82.6536L66.5368 82.6076L66.5398 82.5646V77.7674L66.546 70.8844V67.3385L66.549 66.136L66.5368 65.9214L66.549 65.7036C66.6011 64.5871 67.0606 63.5749 67.7835 62.8203C68.6013 61.9646 69.7469 61.4277 71.0273 61.4246C72.3046 61.4277 73.4533 61.9646 74.2712 62.8203C75.0431 63.6301 75.5148 64.7189 75.5148 65.9244L75.5056 66.1421L75.527 66.1391V70.6175V77.7152L80.4771 74.6448V69.5071L80.4801 63.1178V63.1025L80.474 62.9399L80.5046 62.5198V61.9707H80.5904C80.8998 60.6027 81.8218 59.4677 83.0593 58.8849C83.6413 58.6058 84.2846 58.4401 84.9707 58.4401C87.121 58.4432 88.9099 59.9524 89.3509 61.9707H89.4367V62.667L89.4551 62.8509L89.4673 62.946L89.4551 63.1515V68.8538C92.8215 66.041 95.3271 62.489 96.8526 58.5873C97.4192 57.1365 97.8511 55.6365 98.1452 54.1152L98.2218 53.6919C98.623 51.919 99.5603 50.2657 100.969 48.9958L103.693 47.3058L108.073 44.5912L89.161 14.0007Z" fill="#6D6450"/>
<path id="path134" d="M76.251 66.0313L76.2303 66.0343L76.2392 65.8135C76.2392 64.5912 75.7838 63.4872 75.0386 62.6661C74.2491 61.7983 73.1403 61.254 71.9073 61.2508C70.6713 61.254 69.5654 61.7983 68.7759 62.6661C68.078 63.4312 67.6345 64.4576 67.5842 65.5897L67.5724 65.8105L67.5842 66.0281L67.5813 67.2475V70.8429L67.5753 77.8222V82.6865L67.5724 82.7301L67.5753 82.7767V83.3833L67.6315 83.3459C67.9213 85.5697 69.7102 87.2866 71.9013 87.2866C74.1072 87.2866 75.908 85.5417 76.177 83.3023H76.2125V82.9292L76.2332 82.7301L76.2125 82.5342V77.7911L76.251 77.7692V70.5723V66.0313Z" fill="#B8AC92"/>
<path id="path136" d="M61.7855 72.619V72.5258C61.7577 70.0251 59.7364 68.0035 57.2485 68.0004C54.8841 68.0004 52.9432 69.8137 52.7237 72.1339L52.7021 72.5724L52.7237 73.011V75.157V75.3219V78.5409L50.1399 76.9299L41.5355 82.2951L46.2828 85.2498L47.584 84.4379L47.6798 84.382L52.7206 81.2407V84.4504V86.5903L52.7175 91.9493V91.9617L52.9524 91.8185C53.5304 93.6598 55.2241 95.0004 57.2485 95.0004C59.551 95.0004 61.4332 93.2587 61.7144 91.0162H61.7546V90.6491L61.7762 90.447L61.7546 90.2479V86.3352L61.7793 86.3165V78.2704L61.7855 72.619Z" fill="#B8AC92"/>
<path id="path138" d="M89.7496 62.9856L89.7378 62.8879L89.7201 62.699V61.9838H89.6373C89.2116 59.9109 87.4854 58.3608 85.4103 58.3577C84.7482 58.3577 84.1275 58.5279 83.5659 58.8145C82.3717 59.4131 81.4819 60.5788 81.1834 61.9838H81.1006V62.5478L81.071 62.9793L81.077 63.1463V63.162L81.074 69.7242V75.0011L81.1006 74.9822V75.7289L81.0829 75.921L81.1006 76.1194V76.4975H81.1361C81.4051 78.7721 83.2052 80.5363 85.4103 80.5363C87.6125 80.5363 89.4186 78.7721 89.6816 76.4975H89.7201V76.1257L89.7378 75.921L89.7201 75.7226V69.0689L89.7378 69.0533V63.1966L89.7496 62.9856Z" fill="#B8AC92"/>
<path id="path140" d="M53.1079 84.7249V81.5L48.3213 84.6562L48.2303 84.7124C47.0975 85.5405 46.3579 86.9217 46.3579 88.4873C46.3579 91.0216 48.2831 93.0715 50.6603 93.0715C51.5701 93.0715 52.4065 92.7716 53.105 92.2591L53.1079 86.8749V84.7249Z" fill="#6D6450"/>
</g>
</g>
</g>
</svg>
