<svg width="110" height="110" viewBox="0 0 110 110" fill="none" xmlns="http://www.w3.org/2000/svg">
<g id="Group 131">
<path id="path4302" d="M103 38.5219C103 24.45 91.7287 13 77.8826 13C67.7157 13 58.9483 19.1656 54.9953 28.0031C51.0485 19.1656 42.2783 13 32.1205 13C18.2652 13 7 24.45 7 38.5219C7 41.4875 7.50154 44.3343 8.42441 46.9906C9.4734 50.0093 11.0669 52.7687 13.0849 55.1469C13.9462 56.1656 14.8814 57.1094 15.8904 57.9813L54.2048 96.6438C54.4417 96.8813 54.7492 97 55.0599 97C55.3706 97 55.6813 96.8813 55.9182 96.6438L95.657 56.5343L95.654 56.5312C98.2288 53.9062 100.247 50.725 101.511 47.175C102.474 44.4687 103 41.5562 103 38.5219Z" fill="#6D6450"/>
</g>
</svg>
