<svg width="110" height="110" viewBox="0 0 110 110" fill="none" xmlns="http://www.w3.org/2000/svg">
<g id="Group 130">
<g id="Group 115">
<path id="path866" d="M72 23.2394C72 17.0427 66.8349 12 60.4877 12C55.8313 12 51.8108 14.7118 50.0014 18.6031C48.1892 14.7118 44.1716 12 39.5123 12C33.1651 12 28 17.0427 28 23.2394C28 24.5459 28.2312 25.7988 28.6532 26.9671C29.133 28.299 29.8643 29.5152 30.7892 30.5621C31.1823 31.0107 31.6129 31.4255 32.0754 31.8121L49.6344 48.8391C49.7442 48.9464 49.8887 49 50.0275 49C50.172 49 50.3107 48.9464 50.4206 48.8391L68.6356 31.1716L68.6327 31.1687C69.8149 30.0174 70.7398 28.6122 71.3208 27.0517C71.7601 25.8581 72 24.5798 72 23.2394Z" fill="#6D6450"/>
<path id="path868" d="M103.969 66.0911L104 66C96.8496 66 92.4682 61.643 87.2066 57.9722C83.3864 55.3096 79.1047 53 72.9343 53C70.1653 53 67.8122 53.0256 65.8124 53.0826H51.2723C49.1443 53.0826 47.4208 54.8083 47.4208 56.9356C47.4208 59.0629 49.1443 60.7857 51.2723 60.7857H59.511H64.9293C67.6812 61.2357 69.7893 63.6164 69.7893 66.4955C69.7893 68.6825 68.5672 70.5621 66.781 71.5474C66.348 71.6641 64.2598 72.2166 61.4737 72.9541C59.6762 73.387 57.9698 73.8426 56.3688 74.3068L56.0241 74.398C50.0274 75.9813 43.5665 77.6814 42.3985 77.9576C41.6236 77.9975 40.9143 77.9662 40.2904 77.8095L18.7823 63.8699L14.888 61.0534L14.8852 61.062C14.7029 60.9367 14.5006 60.8313 14.3012 60.7317C14.0135 60.5836 13.7172 60.4554 13.4038 60.3586C13.1588 60.2874 12.9024 60.2333 12.6432 60.1905C12.3669 60.1507 12.0877 60.1222 11.8028 60.1222C11.4183 60.1222 11.0422 60.1621 10.6804 60.2362C7.50404 60.5124 5 63.1437 5 66.3929C5 68.113 5.71504 69.6479 6.84884 70.7642L6.84314 70.7699L6.87447 70.7927C7.32457 71.2284 7.82879 71.61 8.3957 71.9033L9.87992 72.9769L43.5949 97.4106L43.5978 97.4077C43.7345 97.459 43.8741 97.5102 44.0109 97.5643C44.7686 97.8263 45.5748 98 46.4181 98C46.9138 98 47.398 97.9459 47.8652 97.8548L48.0333 97.8092C59.454 94.9045 83.0588 88.9072 94.1034 86.1876C94.374 86.0851 94.6304 85.9911 94.8982 85.8914C97.7157 85.1852 101.561 84.3451 103.969 84.3451V82.7305L104 82.7276L103.969 80.5121V66.5752V66.0911Z" fill="#B8AC92"/>
</g>
</g>
</svg>
