<svg width="110" height="110" viewBox="0 0 110 110" fill="none" xmlns="http://www.w3.org/2000/svg">
<g id="Group 133">
<g id="Group 126">
<g id="Group 117">
<path id="path1130" d="M50.465 42.9091L9.38238 81.5692C9.14425 81.798 9.00632 82.1083 9.00006 82.4373C8.99692 82.7695 9.12542 83.0861 9.35415 83.318L15.9182 89.8834C16.1532 90.1185 16.4697 90.247 16.7987 90.2407C17.1276 90.2345 17.4441 90.0997 17.6666 89.8583L56.3335 48.7791C56.7815 48.2964 56.7722 47.5473 56.3053 47.0803L52.16 42.9342C51.6963 42.4703 50.9444 42.4578 50.465 42.9091Z" fill="#6D6450"/>
<path id="path1132" d="M88.9432 88.4281C88.6934 88.1707 88.3625 88.0241 88.0098 88.0241H47.4874C47.1408 88.0241 46.8005 88.1739 46.5539 88.4281C46.3073 88.6888 46.1668 89.0473 46.1668 89.4057V94.1179H41.5432V98.8334H34.494V103.542H101V98.8334H93.957V94.1179H89.3303V89.4057C89.3303 89.0408 89.193 88.6921 88.9432 88.4281Z" fill="#6D6450"/>
<path id="path1134" d="M44.4698 30.9327L67.8519 53.6627L83.8617 38.0952C84.0198 37.9384 84.1998 37.8177 84.3735 37.688L60.9015 14.8675C60.7713 15.0333 60.6441 15.2082 60.4859 15.362L44.4698 30.9327Z" fill="#6D6450"/>
<path id="path1136" d="M84.0825 38.026C83.9053 38.1564 83.7218 38.2777 83.5605 38.4354L67.2327 54.0901L66.9986 54.3115C65.0407 56.1918 65.0407 59.2397 66.9986 61.1199C68.9597 63.0002 72.1418 63.0002 74.0997 61.1199L90.6617 45.2408C92.6228 43.3605 92.6228 40.3157 90.6617 38.4354C88.8619 36.7098 86.0499 36.5885 84.0825 38.026Z" fill="#B8AC92"/>
<path id="path1138" d="M52.8898 7.47102L37.0127 24.0318C35.1323 25.9931 35.1323 29.1724 37.0127 31.1338C38.89 33.092 41.9411 33.092 43.8184 31.1338L44.0368 30.9029L59.6986 14.5698C59.8533 14.4085 59.9776 14.2251 60.105 14.0511C61.5456 12.0803 61.4213 9.26786 59.6986 7.47102C57.8182 5.50967 54.7702 5.50967 52.8898 7.47102Z" fill="#B8AC92"/>
</g>
</g>
</g>
</svg>
