<svg width="110" height="110" viewBox="0 0 110 110" fill="none" xmlns="http://www.w3.org/2000/svg">
<g id="Group 134">
<g id="Group 132">
<path id="path4986" d="M75.0595 51.2516C70.9389 51.2516 67.5958 46.9469 67.5958 41.6497C67.5958 36.3226 70.9389 32.0179 75.0595 32.0179C79.1802 32.0179 82.5263 36.3226 82.5263 41.6497C82.5263 46.9469 79.1802 51.2516 75.0595 51.2516ZM34.9405 32.0179C39.0611 32.0179 42.4042 36.3226 42.4042 41.6497C42.4042 46.9469 39.0611 51.2516 34.9405 51.2516C30.8198 51.2516 27.4737 46.9469 27.4737 41.6497C27.4737 36.3226 30.8198 32.0179 34.9405 32.0179ZM54.9829 6C27.9354 6 6 27.9597 6 55C6 82.0704 27.9354 104 54.9829 104C82.0645 104 104 82.0704 104 55C104 27.9597 82.0645 6 54.9829 6Z" fill="#B8AC92"/>
<path id="path4988" d="M26.9066 41.9486C26.9066 47.3466 30.4167 51.7333 34.7466 51.7333C39.0765 51.7333 42.5866 47.3466 42.5866 41.9486C42.5866 36.52 39.0765 32.1333 34.7466 32.1333C30.4167 32.1333 26.9066 36.52 26.9066 41.9486Z" fill="#6D6450"/>
<path id="path4990" d="M67.4133 41.9486C67.4133 47.3466 70.9267 51.7333 75.2533 51.7333C79.5865 51.7333 83.0933 47.3466 83.0933 41.9486C83.0933 36.52 79.5865 32.1333 75.2533 32.1333C70.9267 32.1333 67.4133 36.52 67.4133 41.9486Z" fill="#6D6450"/>
<path id="path4992" d="M33.6013 68.1169C33.6013 70.0655 34.1439 71.9211 35.1665 73.6836C36.6974 76.2808 39.3543 78.6318 42.7956 80.3024C46.2368 81.9721 50.4499 82.993 54.9985 82.993C61.0716 82.993 66.5299 81.1989 70.3727 78.4156C72.2987 77.0239 73.8108 75.4161 74.8335 73.6836C75.8593 71.9211 76.3988 70.0655 76.402 68.1169C76.402 67.0029 77.3148 66.1067 78.441 66.1067C79.564 66.1067 80.48 67.0029 80.48 68.1169C80.4831 70.8071 79.7115 73.4059 78.3626 75.6938C76.3392 79.1272 73.0485 81.9405 69.008 83.9207C64.9676 85.8679 60.1588 86.9818 54.9985 87.0134C48.1254 86.9818 41.8639 85.0032 37.2212 81.6628C34.903 79.9931 32.9864 77.9829 31.6407 75.6938C30.2887 73.4059 29.52 70.8071 29.52 68.1169C29.52 67.0029 30.433 66.1067 31.5623 66.1067C32.6884 66.1067 33.6013 67.0029 33.6013 68.1169Z" fill="#6D6450"/>
</g>
</g>
</svg>
