<svg xmlns="http://www.w3.org/2000/svg" xmlns:xlink="http://www.w3.org/1999/xlink" viewBox="0 0 64 64"><defs><style>.cls-1{fill:url(#linear-gradient);}.cls-2{fill:url(#linear-gradient-3);}.cls-3{fill:url(#linear-gradient-5);}.cls-4{fill:#b4cde1;}.cls-5{fill:url(#linear-gradient-6);}.cls-6{fill:#eb7f58;}.cls-7{fill:#e0633d;}</style><linearGradient id="linear-gradient" x1="5" y1="39.5" x2="32" y2="39.5" gradientUnits="userSpaceOnUse"><stop offset="0" stop-color="#d3e6f5"/><stop offset="1" stop-color="#f0f7fc"/></linearGradient><linearGradient id="linear-gradient-3" x1="32" x2="59" xlink:href="#linear-gradient"/><linearGradient id="linear-gradient-5" x1="32" y1="55" x2="32" y2="46" gradientUnits="userSpaceOnUse"><stop offset="0" stop-color="#54a5ff"/><stop offset="1" stop-color="#8ad3fe"/></linearGradient><linearGradient id="linear-gradient-6" x1="45" y1="34" x2="45" y2="9" gradientUnits="userSpaceOnUse"><stop offset="0" stop-color="#fe9661"/><stop offset="1" stop-color="#ffb369"/></linearGradient></defs><title>History</title><g id="History"><path class="cls-1" d="M32,33V49a10.25,10.25,0,0,0-7.24-3H5l6.2-9.92.05-.08h.6a15.55,15.55,0,0,0,7.28-2.9A16.56,16.56,0,0,1,27.81,30h0l.78,0H29A3,3,0,0,1,32,33Z"/><path class="cls-1" d="M32,33V49a10.25,10.25,0,0,0-7.24-3H5l6.2-9.92.05-.08h.6a15.55,15.55,0,0,0,7.28-2.9A16.56,16.56,0,0,1,27.81,30h0l.78,0H29A3,3,0,0,1,32,33Z"/><path class="cls-2" d="M59,46H39.24A10.25,10.25,0,0,0,32,49V33a3,3,0,0,1,3-3h.4l.78,0h0a15.89,15.89,0,0,1,3.3.53A6,6,0,0,0,45,34a5.88,5.88,0,0,0,1.11-.1,15.09,15.09,0,0,0,6,2.1h.6l0,.08Z"/><path class="cls-2" d="M59,46H39.24A10.25,10.25,0,0,0,32,49V33a3,3,0,0,1,3-3h.4l.78,0h0a15.89,15.89,0,0,1,3.3.53A6,6,0,0,0,45,34a5.88,5.88,0,0,0,1.11-.1,15.09,15.09,0,0,0,6,2.1h.6l0,.08Z"/><path class="cls-3" d="M61,48v1a2,2,0,0,1-2,2H44.22a15.46,15.46,0,0,0-9.72,3.12,4,4,0,0,1-5,0A15.46,15.46,0,0,0,19.78,51H5a2,2,0,0,1-2-2V48a2,2,0,0,1,2-2H24.76A10.25,10.25,0,0,1,32,49a10.25,10.25,0,0,1,7.24-3H59A2,2,0,0,1,61,48Z"/><path class="cls-4" d="M52.15,46H39.24A10.25,10.25,0,0,0,32,49V43a3,3,0,0,1,3-3h.4a16.46,16.46,0,0,1,9.47,3.1A15.55,15.55,0,0,0,52.15,46Z"/><path class="cls-4" d="M32,43v6a10.25,10.25,0,0,0-7.24-3H11.85a15.55,15.55,0,0,0,7.28-2.9A16.46,16.46,0,0,1,28.6,40H29A3,3,0,0,1,32,43Z"/><path class="cls-5" d="M51,20.76v7.59a5.76,5.76,0,0,1-4.75,5.53l-.14,0-.11,0A5.62,5.62,0,0,1,45,34a6.53,6.53,0,0,1-1-.08,5.89,5.89,0,0,1-4.51-3.37l-.12-.29A5.11,5.11,0,0,1,39,28.35V20.76A14.78,14.78,0,0,1,45,9a15.27,15.27,0,0,1,4.42,5.24A14.26,14.26,0,0,1,51,20.76Z"/><path class="cls-6" d="M51,21v2.12l-2.35,1.16a1,1,0,0,1-.44.1,1,1,0,0,1-.45-1.9l2.8-1.38A1,1,0,0,1,51,21Z"/><path class="cls-6" d="M43.13,26.77a1,1,0,0,1-.92.61,1.14,1.14,0,0,1-.4-.08L39,26.09V24a1.09,1.09,0,0,1,.39.08l3.21,1.38A1,1,0,0,1,43.13,26.77Z"/><path class="cls-7" d="M45,40a1,1,0,0,1-1-1V17a1,1,0,0,1,2,0V39A1,1,0,0,1,45,40Z"/></g></svg>