<svg xmlns="http://www.w3.org/2000/svg" xmlns:xlink="http://www.w3.org/1999/xlink" viewBox="0 0 64 64"><defs><style>.cls-1{fill:url(#linear-gradient);}.cls-2{fill:url(#linear-gradient-2);}.cls-3{fill:url(#linear-gradient-3);}.cls-4{fill:url(#linear-gradient-4);}.cls-5{fill:url(#linear-gradient-5);}.cls-6{fill:#b4cde1;}.cls-7{fill:#54a5ff;}.cls-8{fill:#8ad3fe;}.cls-9{fill:#ffb369;}</style><linearGradient id="linear-gradient" x1="24.5" y1="33.17" x2="24.5" y2="9.83" gradientUnits="userSpaceOnUse"><stop offset="0" stop-color="#54a5ff"/><stop offset="1" stop-color="#8ad3fe"/></linearGradient><linearGradient id="linear-gradient-2" x1="9" y1="54" x2="55" y2="54" xlink:href="#linear-gradient"/><linearGradient id="linear-gradient-3" x1="21.5" y1="50" x2="21.5" y2="25.8" gradientUnits="userSpaceOnUse"><stop offset="0" stop-color="#d3e6f5"/><stop offset="1" stop-color="#f0f7fc"/></linearGradient><linearGradient id="linear-gradient-4" x1="41.71" x2="41.71" y2="45" xlink:href="#linear-gradient-3"/><linearGradient id="linear-gradient-5" x1="21" y1="31" x2="21" y2="17" xlink:href="#linear-gradient-3"/></defs><title>Research</title><g id="Research"><path class="cls-1" d="M24.84,29.84l2.75,2.75a2,2,0,0,0,2.82,0l.09-.09,5.09-5.09a2,2,0,0,0,0-2.82L21.41,10.41a2,2,0,0,0-2.82,0L13.5,15.5l-.09.09a2,2,0,0,0,0,2.82l1.74,1.74Z"/><path class="cls-2" d="M55,56a2,2,0,0,1-2,2H11a2,2,0,0,1-2-2,6,6,0,0,1,6-6H49A6,6,0,0,1,55,56Z"/><path class="cls-3" d="M32,50H15.51a21,21,0,0,1-1.27-24.2A7,7,0,0,0,20.48,31,13,13,0,0,0,32,50Z"/><path class="cls-4" d="M51.42,45a21,21,0,0,1-2.93,5H32a13,13,0,0,0,10.24-5Z"/><path class="cls-5" d="M28,24a4.63,4.63,0,0,1,0,.65A7,7,0,0,1,21,31a4.41,4.41,0,0,1-.52,0,7,7,0,0,1-6.24-5.17A6.68,6.68,0,0,1,14,24a7,7,0,1,1,14,0Z"/><path class="cls-6" d="M25,24c0,.13,0,.25,0,.37A4,4,0,0,1,21,28l-.3,0a4,4,0,0,1,.3-8,4.1,4.1,0,0,1,1.65.35A4,4,0,0,1,25,24Z"/><path class="cls-7" d="M18.5,10.5l-5,5L9.58,11.58a1.41,1.41,0,0,1-.2-2l3.24-3.24a1.41,1.41,0,0,1,2,.2Z"/><path class="cls-8" d="M39.19,33,36,36.19a1.41,1.41,0,0,1-2-.2L30.5,32.5l5-5L39,31A1.41,1.41,0,0,1,39.19,33Z"/><path class="cls-9" d="M55,43a2,2,0,0,1-2,2H34a2,2,0,0,1-2-2,2,2,0,0,1,2-2H53A2,2,0,0,1,55,43Z"/></g></svg>