<svg xmlns="http://www.w3.org/2000/svg" xmlns:xlink="http://www.w3.org/1999/xlink" viewBox="0 0 64 64"><defs><style>.cls-1{fill:url(#linear-gradient);}.cls-2{fill:#ffb369;}.cls-3{fill:url(#linear-gradient-2);}.cls-4{fill:#b4cde1;}.cls-5{fill:url(#linear-gradient-3);}.cls-6{fill:#4795ea;}</style><linearGradient id="linear-gradient" x1="31.73" y1="52.8" x2="31.73" y2="5.82" gradientUnits="userSpaceOnUse"><stop offset="0" stop-color="#fe9661"/><stop offset="1" stop-color="#ffb369"/></linearGradient><linearGradient id="linear-gradient-2" x1="9" y1="16" x2="25" y2="16" gradientUnits="userSpaceOnUse"><stop offset="0" stop-color="#d3e6f5"/><stop offset="1" stop-color="#f0f7fc"/></linearGradient><linearGradient id="linear-gradient-3" x1="46.5" y1="53" x2="46.5" y2="31" gradientUnits="userSpaceOnUse"><stop offset="0" stop-color="#54a5ff"/><stop offset="1" stop-color="#8ad3fe"/></linearGradient></defs><title>Sport</title><g id="Sport"><path class="cls-1" d="M53.51,16,48,21.54C42.39,27.1,34.33,34.4,27.88,38.89c-.57.4-1.12.79-1.67,1.2a139.93,139.93,0,0,0-10.79,9.73l-3,3L8.2,48.56l3-3A129.72,129.72,0,0,0,21.58,33.86,182.47,182.47,0,0,1,38.53,14l6.31-6.31a6.21,6.21,0,0,1,8.78-.06A6,6,0,0,1,53.51,16Z"/><path class="cls-2" d="M12.44,55.63a2,2,0,0,1-1.41.58,2,2,0,0,1-1.42-.58L5.37,51.38a2,2,0,0,1,0-2.82,2,2,0,0,1,2.83,0l4.24,4.24A2,2,0,0,1,12.44,55.63Z"/><path class="cls-3" d="M25,16a8.26,8.26,0,0,1-.06,1,8,8,0,0,1-6,6.76A7.91,7.91,0,0,1,17,24H17A8,8,0,0,1,9,16.05V16a7.91,7.91,0,0,1,.24-2,8,8,0,0,1,6.76-6,8.36,8.36,0,0,1,2,0A8,8,0,0,1,24.94,15,8.26,8.26,0,0,1,25,16Z"/><path class="cls-4" d="M19,23a6.34,6.34,0,0,1,0,.76A7.91,7.91,0,0,1,17,24H17a.61.61,0,0,1,0-.19A7.19,7.19,0,0,0,17,23a7,7,0,0,0-7-7,7.19,7.19,0,0,0-.81.05H9V16a7.91,7.91,0,0,1,.24-2A6.56,6.56,0,0,1,10,14,9,9,0,0,1,19,23Z"/><path class="cls-4" d="M25,16a8.26,8.26,0,0,1-.06,1A9,9,0,0,1,16,8.06a8.36,8.36,0,0,1,2,0A7,7,0,0,0,24.94,15,8.26,8.26,0,0,1,25,16Z"/><path class="cls-5" d="M59,33.64V43a10,10,0,0,1-6,9.16A9.88,9.88,0,0,1,49,53H44a9.91,9.91,0,0,1-3-.46A10,10,0,0,1,34,43V39.5a2.5,2.5,0,0,1,1.83-2.41,2.59,2.59,0,0,1,.93-.08,2.52,2.52,0,0,1,2.15,2,2.59,2.59,0,0,1,.09.68V42.5A2.5,2.5,0,0,0,41.35,45,2.62,2.62,0,0,0,44,42.34v-8c0-2,1-3.2,2.25-3.32A2.5,2.5,0,0,1,49,33.5a2.5,2.5,0,0,1,2-2.45,2.73,2.73,0,0,1,.5-.05A2.5,2.5,0,0,1,54,33.5a2.49,2.49,0,0,1,2-2.45,2.66,2.66,0,0,1,.75,0A2.6,2.6,0,0,1,59,33.64Z"/><path class="cls-6" d="M53,52.16V55a2,2,0,0,1-2,2H43a2,2,0,0,1-2-2V52.54A9.91,9.91,0,0,0,44,53h5A9.88,9.88,0,0,0,53,52.16Z"/><path class="cls-6" d="M56.5,31a2.73,2.73,0,0,0-.5.05h0a3.09,3.09,0,0,0-.43.14.31.31,0,0,0-.1,0,1.87,1.87,0,0,0-.31.17l-.1.07a2.75,2.75,0,0,0-.26.22l-.09.08a2.88,2.88,0,0,0-.22.27.86.86,0,0,0-.07.1,2.85,2.85,0,0,0-.16.3l-.06.12a3.18,3.18,0,0,0-.1.33l0,.12a2.44,2.44,0,0,0,0,.48V42a5,5,0,0,1-5,5,1,1,0,0,0,0,2,7,7,0,0,0,7-7V33.5a2.49,2.49,0,0,1,1.5-2.29A2.42,2.42,0,0,0,56.5,31Z"/><path class="cls-6" d="M51.5,31a2.73,2.73,0,0,0-.5.05h0a2.13,2.13,0,0,0-.43.13l-.12.06a1.51,1.51,0,0,0-.28.15l-.13.1-.23.18-.12.13-.18.22-.1.14-.14.25s0,.1-.07.16a1.49,1.49,0,0,0-.09.3.74.74,0,0,0,0,.14,2.61,2.61,0,0,0,0,.48V42a1,1,0,0,0,2,0V33.5a2.49,2.49,0,0,1,1.5-2.29A2.42,2.42,0,0,0,51.5,31Z"/><path class="cls-6" d="M46.5,31a2.73,2.73,0,0,0-.5.05h0a2.13,2.13,0,0,0-.43.13l-.12.06a1.51,1.51,0,0,0-.28.15l-.13.1-.23.18-.12.13-.18.22-.1.14-.14.25s0,.1-.07.16a1.49,1.49,0,0,0-.09.3.74.74,0,0,0,0,.14,2.61,2.61,0,0,0,0,.48v1A4.45,4.45,0,0,1,42.32,38a4.28,4.28,0,0,1-1.32.74,4.38,4.38,0,0,1-1.5.26,3.81,3.81,0,0,1-.59,0,2.59,2.59,0,0,1,.09.68V42.5A2.49,2.49,0,0,0,41,45v0h.5a2.38,2.38,0,0,0,1.16-.29h0A5,5,0,0,0,46,40V33.5a2.49,2.49,0,0,1,1.5-2.29A2.42,2.42,0,0,0,46.5,31Z"/></g></svg>