<svg width="110" height="110" viewBox="0 0 110 110" fill="none" xmlns="http://www.w3.org/2000/svg">
<g id="Group 146">
<g id="Group 47">
<path id="path2570" d="M61.1617 103.343V102.827H48.8232V103.343H61.1617Z" fill="#DFD8C8"/>
<path id="path2572" d="M65.5383 92.3933C65.5383 92.7138 65.2419 92.9762 64.8794 92.9762H45.4841C45.119 92.9762 44.8226 92.7138 44.8226 92.3933V91.3679C44.8226 91.05 45.119 90.7853 45.4841 90.7853H64.8794C65.2419 90.7853 65.5383 91.05 65.5383 91.3679V92.3933ZM65.5383 97.5755C65.5383 97.8987 65.2419 98.1555 64.8794 98.1555H45.4841C45.119 98.1555 44.8226 97.8987 44.8226 97.5755V96.5501C44.8226 96.2296 45.119 95.9724 45.4841 95.9724H64.8794C65.2419 95.9724 65.5383 96.2296 65.5383 96.5501V97.5755ZM65.5383 102.76C65.5383 103.081 65.2419 103.34 64.8794 103.34H61.1645H48.826H45.4841C45.119 103.34 44.8226 103.081 44.8226 102.76V101.735C44.8226 101.411 45.119 101.155 45.4841 101.155H64.8794C65.2419 101.155 65.5383 101.411 65.5383 101.735V102.76ZM39.221 58.8531C39.1099 59.2875 38.7288 59.5922 38.2896 59.5922H38.0303C37.7286 59.5922 37.4482 59.4518 37.263 59.208C37.0804 58.9669 37.0169 58.6597 37.091 58.3656C38.9538 50.9158 44.9338 45.1533 52.3294 43.6803C52.9327 43.5584 53.4777 44.0461 53.4777 44.6554V44.9069C53.4777 45.3758 53.147 45.776 52.6945 45.8714C46.1853 47.1775 40.8959 52.2722 39.221 58.8531ZM82.0972 63.2456C82.0972 48.1022 70.0207 35.7802 55.1818 35.7802C40.3376 35.7802 28.2638 48.1022 28.2638 63.2456C28.2638 73.9701 34.3259 83.2769 43.1292 87.7914C43.108 87.9662 43.0894 88.1386 43.0815 88.3135L43.0683 88.4247V102.233C43.0683 104.758 45.0819 106.808 47.556 106.808H49.0139V106.917H53.4777H56.5128H61.3471V106.808H62.805C65.279 106.808 67.29 104.758 67.29 102.233V88.4247L67.282 88.3135C67.2714 88.1386 67.2529 87.9662 67.2318 87.7914C76.0351 83.2769 82.0972 73.9701 82.0972 63.2456Z" fill="#6D6450"/>
<path id="path2574" d="M53.1785 10.9558V26.5019C53.1785 27.612 54.0755 28.5076 55.1815 28.5076C56.2875 28.5076 57.1846 27.612 57.1846 26.5019V10.9558C57.1846 9.84843 56.2875 8.95023 55.1815 8.95023C54.0755 8.95023 53.1785 9.84843 53.1785 10.9558Z" fill="#DFD8C8"/>
<path id="path2576" d="M8.81687 39.6269C7.80609 39.1765 6.62061 39.6321 6.17344 40.6442C5.72361 41.6562 6.17875 42.8431 7.19218 43.2909L21.3828 49.6042C22.3936 50.0519 23.5764 49.5963 24.0262 48.5869C24.476 47.5722 24.0209 46.3853 23.0075 45.9376L8.81687 39.6269Z" fill="#DFD8C8"/>
<path id="path2578" d="M101.166 39.6269L86.9724 45.9376C85.9643 46.3853 85.5092 47.5722 85.9564 48.5869C86.4062 49.5963 87.5917 50.0519 88.6024 49.6042L102.793 43.2909C103.804 42.8431 104.259 41.6562 103.812 40.6442C103.362 39.6321 102.177 39.1765 101.166 39.6269Z" fill="#DFD8C8"/>
</g>
</g>
</svg>
