<svg width="110" height="111" viewBox="0 0 110 111" fill="none" xmlns="http://www.w3.org/2000/svg">
<g id="Group 144">
<g id="Group 23">
<path id="path810" d="M22.5869 46.3855L39.1269 62.9519C39.0727 62.8223 39.0005 62.7048 38.9524 62.5693C38.6364 61.6685 38.4617 60.7044 38.4617 59.6952C38.4617 58.6559 38.6514 57.6617 38.9914 56.7338L33.2293 50.9677L33.2264 50.9707C32.5404 51.5732 31.5022 51.5521 30.8493 50.8954C30.1993 50.2446 30.1874 49.2053 30.7831 48.5244L25.4333 43.165L24.9067 43.6832L24.9158 43.6892L24.8706 43.7314C24.0341 44.5719 23.288 45.4697 22.5869 46.3855Z" fill="#B8AC92"/>
<path id="path812" d="M12 76.9541L34.0159 98.9974L37.1694 95.8402L39.1369 93.8729C40.4849 92.936 42.0616 92.4691 43.6352 92.4842C43.7616 92.4842 43.8851 92.4962 44.0055 92.4992C45.3504 92.5565 46.6954 92.4871 48.0284 92.2943C51.0011 91.8726 53.8986 90.8362 56.5314 89.1974C54.6418 88.405 52.8364 87.3416 51.1815 85.995L51.1454 86.0341L50.6699 85.5551C50.2607 85.2027 49.8607 84.8411 49.4726 84.4525C49.0874 84.0669 48.7262 83.6662 48.3742 83.2595L38.412 73.2878L38.4299 73.2697L18.7039 53.5189C17.726 56.2484 17.1843 59.1043 17.1271 61.9693C17.1061 63.069 17.1512 64.1716 17.2655 65.2651C17.3708 66.2503 17.5303 67.2294 17.7439 68.1964C17.6897 70.1124 16.9375 72.0104 15.4752 73.4715L12 76.9541Z" fill="#B8AC92"/>
<path id="path814" d="M36.2961 43.0271L39.3411 39.9995L34.0004 34.6491L30.9524 37.6738L36.2961 43.0271Z" fill="#B8AC92"/>
<path id="path816" d="M91.3529 44.0218L91.323 44.0459L91.2927 44.0761L88.7352 46.6639C90.2396 49.074 91.353 51.6769 92.015 54.3641L96.5582 49.8211L96.8292 49.5681L97.1001 49.2909C98.3638 47.7574 98.2733 45.4829 96.8591 44.0459C95.3246 42.5336 92.8875 42.5245 91.3529 44.0218Z" fill="#B8AC92"/>
<path id="path818" d="M85.126 42.1397C85.457 42.4892 85.7579 42.8598 86.0889 43.2213L92.3473 36.949L92.4977 36.8225L92.6182 36.6809C93.2802 35.9669 93.6112 35.0661 93.6413 34.1593C93.6413 33.129 93.28 32.0987 92.4977 31.3154C91.7154 30.5321 90.6926 30.1555 89.6696 30.1796C88.6766 30.2007 87.7438 30.5803 86.9915 31.3154L86.8714 31.457V31.4389L80.6429 37.6721L85.096 42.0916L85.066 42.1006L85.126 42.1397Z" fill="#B8AC92"/>
<path id="path820" d="M75.279 43.02L72.8416 45.4571L76.6027 49.2109L76.7531 49.3766C77.4452 49.9761 78.4683 49.955 79.1303 49.3043C79.7922 48.6294 79.8222 47.5419 79.1602 46.8581L79.1 46.8128L75.279 43.02Z" fill="#B8AC92"/>
<path id="path822" d="M66.5891 25.2721C67.5068 25.2661 68.3372 25.6096 68.9962 26.1548L75.1943 19.9398L75.3448 19.8163L75.4652 19.6777C76.1573 18.9276 76.4884 17.9756 76.4884 17.0296C76.4583 16.0415 76.097 15.0533 75.3448 14.3002C74.5926 13.547 73.5997 13.1674 72.6068 13.1584C71.644 13.1493 70.651 13.5139 69.8988 14.2399L69.8386 14.3002L69.7784 14.3634L55.7933 28.36L61.2936 33.8701L63.6945 31.46C63.1559 30.8093 62.8219 29.9899 62.8159 29.0771C62.8099 26.9803 64.4949 25.2781 66.5891 25.2721Z" fill="#B8AC92"/>
<path id="path824" d="M80.28 20.9259L80.1596 21.0615L72.0659 29.1564L77.572 34.6424L85.666 26.5384L85.7862 26.4451C87.2907 24.9207 87.2907 22.4533 85.7862 20.9259C84.2517 19.4015 81.7845 19.4015 80.28 20.9259Z" fill="#B8AC92"/>
<path id="path826" d="M40.5917 28.1021L39.5206 29.1626L44.8643 34.51L45.9083 33.4736C46.6636 32.7988 47.1392 31.8257 47.1662 30.7412L43.3029 26.8699C42.2769 26.8971 41.3469 27.3279 40.6789 28.0148L40.5917 28.1021Z" fill="#B8AC92"/>
<path id="path828" d="M47.2515 36.907L50.2301 39.8895C51.4065 38.9827 52.6372 38.1813 53.913 37.4975L50.2874 33.8703L47.8412 36.3165L47.2515 36.907Z" fill="#B8AC92"/>
<path id="path830" d="M42.5668 49.3069C43.2047 47.9934 43.96 46.713 44.8326 45.4959L41.7544 42.414L38.7185 45.4507L42.5668 49.3069Z" fill="#B8AC92"/>
<path id="path832" d="M69.8383 42.4137L72.2454 39.9915L66.7213 34.5086L64.3262 36.9066L69.8383 42.4137Z" fill="#B8AC92"/>
<path id="path834" d="M48.3744 83.2586C48.7264 83.6653 49.0876 84.0659 49.4728 84.4515C49.8609 84.8402 50.2609 85.2017 50.6701 85.5542L51.1456 86.0332L51.1817 85.994C52.8366 87.3407 54.642 88.4041 56.5316 89.1964C58.2827 89.9315 60.1031 90.4376 61.9596 90.6997C63.2895 90.8895 64.6344 90.9619 65.9763 90.9046C66.0997 90.8986 66.2231 90.8895 66.3495 90.8895C67.9262 90.8745 69.5059 91.3415 70.8599 92.2754L72.8157 94.2456L75.975 97.3998L98 75.3595L94.5095 71.8769C93.0352 70.4127 92.283 68.5178 92.2529 66.6018C92.4635 65.6347 92.6139 64.6526 92.7042 63.6705C92.8246 62.5769 92.8847 61.4743 92.8547 60.3717C92.8246 58.3533 92.5237 56.3408 92.0122 54.3646C91.3503 51.6773 90.2369 49.0744 88.7324 46.6643C87.9501 45.4562 87.0776 44.3084 86.0847 43.2179C85.7537 42.8564 85.4528 42.4858 85.1218 42.1363L85.0618 42.0972L85.0918 42.0882L80.6387 37.6687L77.5696 34.641L72.0634 29.155L69.3854 26.5039L69.2952 26.4195C69.2049 26.3201 69.0846 26.2388 68.9943 26.1514C68.3354 25.6061 67.5049 25.2627 66.5872 25.2687C64.493 25.2747 62.8081 26.9769 62.8141 29.0737C62.8201 29.9865 63.1541 30.8059 63.6926 31.4566C63.816 31.6042 63.9364 31.7489 64.0779 31.8754L66.5931 34.3758L66.7197 34.5054L72.2438 39.9884L75.283 43.0191L79.104 46.8119L79.1643 46.8571C79.8262 47.541 79.7962 48.6285 79.1343 49.3034C78.4723 49.9541 77.4492 49.9752 76.7572 49.3757L76.6067 49.2099L72.8456 45.4562L72.2438 44.8537V44.8416L69.8367 42.4105L64.3247 36.9034L62.14 34.7193L61.2917 33.8667L55.7914 28.3566L40.2143 12.7663L40.1544 12.7001L40.0941 12.6428C39.3329 11.9138 38.352 11.5492 37.3711 11.5583C36.3872 11.5673 35.3972 11.9469 34.6449 12.7001C33.8927 13.4562 33.5136 14.4414 33.5046 15.4295C33.5016 16.3815 33.8416 17.3275 34.5186 18.0776L34.6449 18.2162L34.7833 18.3427L43.3016 26.8684L47.165 30.7396L50.2882 33.8667L53.9138 37.4939C52.638 38.1778 51.4073 38.9791 50.2309 39.8859L47.2523 36.9034L44.8631 34.5084L39.5194 29.161L29.8337 19.4634L29.7164 19.3308C28.1939 17.8094 25.7266 17.8094 24.2041 19.3308C22.6786 20.8552 22.6816 23.3256 24.2041 24.85L24.3096 24.9464L34.0011 34.647L39.3419 39.9974L41.7549 42.4105L44.8331 45.4924C43.9605 46.7095 43.2052 47.9899 42.5673 49.3034L38.719 45.4472L36.2969 43.025L30.9532 37.6717L23.1301 29.8448L23.1181 29.8599L22.9917 29.7183C22.2576 28.9832 21.2975 28.6036 20.3316 28.5826C19.3056 28.5585 18.2737 28.935 17.4914 29.7183C16.7091 30.4986 16.3328 31.5349 16.3569 32.5622C16.378 33.469 16.7121 34.3698 17.3651 35.0868L17.4914 35.2254L17.6298 35.3519L25.4317 43.1637L30.7816 48.5231L33.2278 50.9663L38.9899 56.7324C40.1995 53.4125 43.3797 51.0296 47.1077 51.0296C50.61 51.0296 53.6309 53.1234 54.9939 56.1209C56.354 53.1234 59.3721 51.0296 62.8714 51.0296C67.6435 51.0296 71.5219 54.9189 71.5219 59.6939C71.5219 60.7272 71.3413 61.7153 71.0103 62.6312C70.5891 63.8362 69.897 64.9178 68.9943 65.8065V65.8095L55.3098 79.4265L55.0122 79.5501L54.7171 79.4265L41.5233 66.3005C41.1743 66.0053 40.8494 65.683 40.5546 65.3395C39.9498 64.6346 39.4834 63.8212 39.1253 62.9505L22.5853 46.3841L18.6859 42.4828L18.6588 42.4527L18.6288 42.4255C17.1033 40.9313 14.657 40.9373 13.1435 42.4527C11.7083 43.8897 11.6241 46.1642 12.8908 47.6946L13.1435 47.9748L13.4203 48.2278L18.7041 53.518L38.4301 73.2687L38.4122 73.2868L48.3744 83.2586Z" fill="#6D6450"/>
<path id="path836" d="M54.9967 56.1245C53.6336 53.127 50.6127 51.0331 47.1104 51.0331C43.3824 51.0331 40.2022 53.4161 38.9926 56.736C38.6526 57.6639 38.4628 58.6581 38.4628 59.6974C38.4628 60.7067 38.6376 61.6707 38.9535 62.5715C39.0017 62.7071 39.0739 62.8246 39.1281 62.9541C39.4861 63.8247 39.9525 64.6381 40.5573 65.3431C40.8522 65.6865 41.177 66.0089 41.5261 66.3041L54.7199 79.4301L55.0149 79.5536L55.3125 79.4301L68.997 65.8131V65.81C69.8997 64.9213 70.5918 63.8398 71.0131 62.6347C71.344 61.7189 71.5246 60.7308 71.5246 59.6974C71.5246 54.9224 67.6462 51.0331 62.8741 51.0331C59.3748 51.0331 56.3567 53.127 54.9967 56.1245Z" fill="#DFD8C8"/>
</g>
</g>
</svg>
